<svg width="35" height="35" viewBox="0 0 35 35" fill="none" xmlns="http://www.w3.org/2000/svg">
<path d="M35 24.8325C35 31.2025 31.2025 35 24.8325 35H22.75C21.7875 35 21 34.2125 21 33.25V23.1525C21 22.68 21.385 22.2775 21.8575 22.2775L24.9375 22.225C25.1825 22.2075 25.3925 22.0325 25.445 21.7875L26.0575 18.445C26.11 18.13 25.865 17.8325 25.5325 17.8325L21.805 17.885C21.315 17.885 20.93 17.5 20.9125 17.0275L20.8425 12.74C20.8425 12.46 21.07 12.215 21.3675 12.215L25.5675 12.145C25.865 12.145 26.0925 11.9175 26.0925 11.62L26.0225 7.41998C26.0225 7.12248 25.795 6.895 25.4975 6.895L20.7725 6.96502C17.8675 7.01752 15.5575 9.3975 15.61 12.3025L15.6975 17.115C15.715 17.605 15.33 17.99 14.84 18.0075L12.74 18.0425C12.4425 18.0425 12.215 18.27 12.215 18.5675L12.2675 21.8925C12.2675 22.19 12.495 22.4175 12.7925 22.4175L14.8925 22.3825C15.3825 22.3825 15.7675 22.7675 15.785 23.24L15.9425 33.215C15.96 34.195 15.1725 35 14.1925 35H10.1675C3.7975 35 0 31.2025 0 24.815V10.1675C0 3.7975 3.7975 0 10.1675 0H24.8325C31.2025 0 35 3.7975 35 10.1675V24.8325Z" fill="#55538A"/>
</svg>
