<svg width="35" height="36" viewBox="0 0 35 36" fill="none" xmlns="http://www.w3.org/2000/svg">
<path d="M24.8449 0H10.1726C3.79939 0 0 3.79939 0 10.1726V24.8274C0 31.2181 3.79939 35.0174 10.1726 35.0174H24.8274C31.2005 35.0174 34.9999 31.2181 34.9999 24.8449V10.1726C35.0174 3.79939 31.2181 0 24.8449 0ZM17.5087 24.3021C13.7619 24.3021 10.7153 21.2556 10.7153 17.5087C10.7153 13.7619 13.7619 10.7153 17.5087 10.7153C21.2556 10.7153 24.3021 13.7619 24.3021 17.5087C24.3021 21.2556 21.2556 24.3021 17.5087 24.3021ZM27.8739 8.54426C27.7863 8.75436 27.6638 8.94696 27.5062 9.12205C27.3311 9.27962 27.1385 9.40218 26.9284 9.48973C26.7183 9.57727 26.4907 9.6298 26.2631 9.6298C25.7904 9.6298 25.3526 9.45471 25.02 9.12205C24.8624 8.94696 24.7398 8.75436 24.6523 8.54426C24.5647 8.33415 24.5122 8.10654 24.5122 7.87893C24.5122 7.65131 24.5647 7.4237 24.6523 7.21359C24.7398 6.98598 24.8624 6.81089 25.02 6.63581C25.4227 6.23311 26.0355 6.04051 26.5958 6.16307C26.7183 6.18058 26.8234 6.2156 26.9284 6.26812C27.0335 6.30314 27.1385 6.35567 27.2436 6.4257C27.3311 6.47823 27.4187 6.56577 27.5062 6.63581C27.6638 6.81089 27.7863 6.98598 27.8739 7.21359C27.9614 7.4237 28.014 7.65131 28.014 7.87893C28.014 8.10654 27.9614 8.33415 27.8739 8.54426Z" fill="#55538A"/>
</svg>
